<svg width="255" height="47" viewBox="0 0 255 47" fill="none" xmlns="http://www.w3.org/2000/svg">
<path d="M87.0033 24.7033H78.0852L69.0653 15.4408H65.5727V24.7033H58.5195V0.778156H65.5727V10.0064H68.9297L77.5087 0.778156H85.9521L74.5247 12.2622L87.0033 24.7033Z" fill="#F1681A"/>
<path d="M114.997 0.778156H127.34L127.306 24.7033H120.558V4.64036L113.539 24.7033H104.01L96.9912 4.64036V24.7033H90.2432V0.778156H102.586L108.859 20.5335L114.997 0.778156Z" fill="#F1681A"/>
<path d="M153.441 0.778156H161.07L152.796 16.7738C151.756 18.779 150.773 20.3398 149.846 21.4563C148.942 22.55 147.834 23.4045 146.523 24.0197C145.212 24.6122 143.63 24.9084 141.776 24.9084C140.442 24.9084 138.905 24.8058 137.164 24.6008V19.0638C138.769 19.2005 140.046 19.2689 140.996 19.2689C143.053 19.2689 144.387 18.6878 144.997 17.5258H141.911L130.654 0.778156H138.521L147.167 14.7231L153.441 0.778156Z" fill="#F1681A"/>
<path d="M162.22 6.58855V0.778156H189.279V6.58855H179.276V24.7033H172.223V6.58855H162.22Z" fill="#F1681A"/>
<path d="M205.318 0.368011C210.11 0.368011 213.829 1.46173 216.474 3.64917C219.141 5.81383 220.475 8.84435 220.475 12.7407C220.475 16.6371 219.108 19.679 216.372 21.8665C213.659 24.0311 209.828 25.1134 204.877 25.1134C200.74 25.1134 197.485 24.3843 195.111 22.926C192.737 21.4677 191.291 19.3144 190.771 16.4662L197.688 16.1586C198.14 17.1156 198.977 17.8903 200.197 18.4828C201.418 19.0524 202.978 19.3372 204.877 19.3372C209.217 19.3372 211.919 17.9473 212.981 15.1674H202.639V9.90389H212.846C211.715 7.39744 209.206 6.14422 205.318 6.14422C203.577 6.14422 202.062 6.40626 200.774 6.93033C199.485 7.43162 198.615 8.1152 198.163 8.98106L191.313 8.57092C191.901 6.04169 193.416 4.04793 195.857 2.58963C198.299 1.10855 201.452 0.368011 205.318 0.368011Z" fill="#F1681A"/>
<path d="M227.635 21.8323C224.855 19.6448 223.464 16.6143 223.464 12.7407C223.464 8.86713 224.855 5.83661 227.635 3.64917C230.416 1.46173 234.281 0.368011 239.232 0.368011C244.183 0.368011 248.048 1.46173 250.829 3.64917C253.61 5.83661 255 8.86713 255 12.7407C255 16.6143 253.61 19.6448 250.829 21.8323C248.048 24.0197 244.183 25.1134 239.232 25.1134C234.281 25.1134 230.416 24.0197 227.635 21.8323ZM232.789 7.9557C231.275 9.14056 230.517 10.7356 230.517 12.7407C230.517 14.7459 231.275 16.3523 232.789 17.5599C234.327 18.7448 236.474 19.3372 239.232 19.3372C241.99 19.3372 244.126 18.7448 245.641 17.5599C247.178 16.3523 247.947 14.7459 247.947 12.7407C247.947 10.7356 247.178 9.14056 245.641 7.9557C244.126 6.74805 241.99 6.14422 239.232 6.14422C236.474 6.14422 234.327 6.74805 232.789 7.9557Z" fill="#F1681A"/>
<path d="M23.1619 35.8104C30.2928 35.8104 36.0736 29.986 36.0736 22.8012C36.0736 21.1245 35.7588 19.5219 35.1855 18.0501L41.7855 11.4003C43.7937 14.7233 44.9504 18.6262 44.9504 22.8012C44.9504 34.9255 35.1954 44.7542 23.1619 44.7542C17.299 44.7542 11.977 42.4211 8.06055 38.6261L14.3394 32.2999C16.6478 34.4773 19.7503 35.8104 23.1619 35.8104Z" fill="#F1681A"/>
<path d="M0 21.0829V42.1657L9.45497 32.6394V21.0829L20.9249 32.6394L41.8498 11.5565V0L20.9249 21.0829L0 0V21.0829Z" fill="#161617"/>
<path d="M64.5898 36.8843H63.6666L61.2469 34.6814H59.9042V36.8843H59.2049V31.989H59.9042V34.1429H61.2399L63.5408 31.989H64.4009L61.7994 34.3667L64.5898 36.8843ZM65.2417 36.4577C64.8128 36.1174 64.5983 35.6488 64.5983 35.0521C64.5983 34.4553 64.8128 33.9867 65.2417 33.6464C65.6706 33.3061 66.2441 33.1359 66.962 33.1359C67.68 33.1359 68.2535 33.3061 68.6824 33.6464C69.1113 33.9867 69.3258 34.4553 69.3258 35.0521C69.3258 35.6488 69.1113 36.1174 68.6824 36.4577C68.2535 36.7981 67.68 36.9682 66.962 36.9682C66.2441 36.9682 65.6706 36.7981 65.2417 36.4577ZM65.7172 34.031C65.4095 34.2875 65.2557 34.6278 65.2557 35.0521C65.2557 35.4763 65.4095 35.8167 65.7172 36.0731C66.0249 36.3295 66.4399 36.4577 66.962 36.4577C67.4842 36.4577 67.8992 36.3295 68.2069 36.0731C68.5146 35.8167 68.6684 35.4763 68.6684 35.0521C68.6684 34.6278 68.5146 34.2875 68.2069 34.031C67.8992 33.7746 67.4842 33.6464 66.962 33.6464C66.4399 33.6464 66.0249 33.7746 65.7172 34.031ZM70.2042 36.8843V33.2198H74.3862V36.8843H73.7218V33.7653H70.8685V36.8843H70.2042ZM76.1472 33.2198H79.5949V36.8843H78.9306V33.7653H76.7347C76.6507 34.819 76.5971 35.432 76.5738 35.6045C76.4852 36.1966 76.3151 36.5836 76.0633 36.7654C75.9048 36.8773 75.6973 36.9333 75.4409 36.9333C75.3803 36.9333 75.2567 36.924 75.0702 36.9053V36.3668C75.1728 36.3761 75.2497 36.3808 75.301 36.3808C75.6227 36.3808 75.8279 36.178 75.9164 35.7724C76.005 35.3621 76.0819 34.5112 76.1472 33.2198ZM85.0855 35.157V35.2409H81.1343C81.1809 35.6512 81.3604 35.9635 81.6728 36.178C81.9852 36.3925 82.3931 36.4997 82.8966 36.4997C83.251 36.4997 83.554 36.4461 83.8058 36.3388C84.0622 36.2316 84.2487 36.0871 84.3652 35.9053L85.0016 35.9332C84.8711 36.2596 84.624 36.5137 84.2603 36.6955C83.9013 36.8773 83.4468 36.9682 82.8966 36.9682C82.146 36.9682 81.5539 36.8074 81.1203 36.4857C80.6867 36.1593 80.4699 35.6815 80.4699 35.0521C80.4699 34.4273 80.6844 33.9518 81.1133 33.6254C81.5469 33.2991 82.118 33.1359 82.8267 33.1359C83.554 33.1359 84.1111 33.3037 84.4981 33.6394C84.8897 33.9704 85.0855 34.4763 85.0855 35.157ZM82.8267 33.6044C82.3605 33.6044 81.9758 33.707 81.6728 33.9121C81.3744 34.1173 81.1972 34.418 81.1413 34.8143H84.4282C84.4095 34.4413 84.2557 34.1476 83.9666 33.9331C83.6822 33.714 83.3022 33.6044 82.8267 33.6044ZM90.3868 36.8843H89.4707L87.4986 35.2898H86.6104V36.8843H85.9461V33.2198H86.6104V34.7723H87.5126L89.4148 33.2198H90.268L88.0231 34.9751L90.3868 36.8843ZM94.9855 35.6325C94.8922 36.0568 94.6498 36.3855 94.2582 36.6186C93.8712 36.8517 93.391 36.9682 92.8175 36.9682C92.0995 36.9682 91.5307 36.8027 91.1111 36.4717C90.6962 36.136 90.4887 35.6628 90.4887 35.0521C90.4887 34.4413 90.6962 33.9704 91.1111 33.6394C91.5261 33.3037 92.0879 33.1359 92.7965 33.1359C93.3513 33.1359 93.8246 33.2478 94.2162 33.4716C94.6125 33.6954 94.8503 34.0147 94.9295 34.4297L94.3001 34.4646C94.2209 34.1989 94.0437 33.9961 93.7686 33.8562C93.4935 33.7163 93.1695 33.6464 92.7965 33.6464C92.3023 33.6464 91.9037 33.7723 91.6007 34.024C91.3023 34.2758 91.1531 34.6185 91.1531 35.0521C91.1531 35.4857 91.3046 35.8283 91.6077 36.0801C91.9107 36.3318 92.314 36.4577 92.8175 36.4577C93.1998 36.4577 93.5262 36.3831 93.7966 36.2339C94.0717 36.0847 94.2512 35.8726 94.3351 35.5975L94.9855 35.6325ZM95.7941 36.8843V33.2198H96.4585V34.7444H99.3747V33.2198H100.039V36.8843H99.3747V35.2898H96.4585V36.8843H95.7941ZM101.554 36.4577C101.125 36.1174 100.91 35.6488 100.91 35.0521C100.91 34.4553 101.125 33.9867 101.554 33.6464C101.983 33.3061 102.556 33.1359 103.274 33.1359C103.992 33.1359 104.566 33.3061 104.995 33.6464C105.424 33.9867 105.638 34.4553 105.638 35.0521C105.638 35.6488 105.424 36.1174 104.995 36.4577C104.566 36.7981 103.992 36.9682 103.274 36.9682C102.556 36.9682 101.983 36.7981 101.554 36.4577ZM102.029 34.031C101.722 34.2875 101.568 34.6278 101.568 35.0521C101.568 35.4763 101.722 35.8167 102.029 36.0731C102.337 36.3295 102.752 36.4577 103.274 36.4577C103.796 36.4577 104.211 36.3295 104.519 36.0731C104.827 35.8167 104.981 35.4763 104.981 35.0521C104.981 34.6278 104.827 34.2875 104.519 34.031C104.211 33.7746 103.796 33.6464 103.274 33.6464C102.752 33.6464 102.337 33.7746 102.029 34.031ZM110.887 35.157V35.2409H106.936C106.983 35.6512 107.162 35.9635 107.474 36.178C107.787 36.3925 108.195 36.4997 108.698 36.4997C109.053 36.4997 109.356 36.4461 109.607 36.3388C109.864 36.2316 110.05 36.0871 110.167 35.9053L110.803 35.9332C110.673 36.2596 110.426 36.5137 110.062 36.6955C109.703 36.8773 109.248 36.9682 108.698 36.9682C107.948 36.9682 107.356 36.8074 106.922 36.4857C106.488 36.1593 106.272 35.6815 106.272 35.0521C106.272 34.4273 106.486 33.9518 106.915 33.6254C107.349 33.2991 107.92 33.1359 108.628 33.1359C109.356 33.1359 109.913 33.3037 110.3 33.6394C110.691 33.9704 110.887 34.4763 110.887 35.157ZM108.628 33.6044C108.162 33.6044 107.777 33.707 107.474 33.9121C107.176 34.1173 106.999 34.418 106.943 34.8143H110.23C110.211 34.4413 110.057 34.1476 109.768 33.9331C109.484 33.714 109.104 33.6044 108.628 33.6044ZM118.855 33.2198H119.967V36.8843H119.324V33.6044L117.428 36.8843H116.533L114.638 33.6114V36.8843H113.995V33.2198H115.114L116.988 36.5486L118.855 33.2198ZM121.482 36.4577C121.053 36.1174 120.839 35.6488 120.839 35.0521C120.839 34.4553 121.053 33.9867 121.482 33.6464C121.911 33.3061 122.485 33.1359 123.203 33.1359C123.921 33.1359 124.494 33.3061 124.923 33.6464C125.352 33.9867 125.566 34.4553 125.566 35.0521C125.566 35.6488 125.352 36.1174 124.923 36.4577C124.494 36.7981 123.921 36.9682 123.203 36.9682C122.485 36.9682 121.911 36.7981 121.482 36.4577ZM121.958 34.031C121.65 34.2875 121.496 34.6278 121.496 35.0521C121.496 35.4763 121.65 35.8167 121.958 36.0731C122.265 36.3295 122.68 36.4577 123.203 36.4577C123.725 36.4577 124.14 36.3295 124.447 36.0731C124.755 35.8167 124.909 35.4763 124.909 35.0521C124.909 34.6278 124.755 34.2875 124.447 34.031C124.14 33.7746 123.725 33.6464 123.203 33.6464C122.68 33.6464 122.265 33.7746 121.958 34.031ZM126.445 36.8843V33.2198H127.109V34.7444H130.025V33.2198H130.69V36.8843H130.025V35.2898H127.109V36.8843H126.445ZM131.435 33.7653V33.2198H135.631V33.7653H133.862V36.8843H133.197V33.7653H131.435ZM138.226 33.1359C138.883 33.1359 139.38 33.2618 139.715 33.5135C140.056 33.7606 140.226 34.1219 140.226 34.5975V36.8843H139.618V36.0451C139.454 36.3342 139.198 36.5603 138.848 36.7235C138.503 36.8867 138.086 36.9682 137.596 36.9682C137.037 36.9682 136.62 36.8727 136.345 36.6815C136.074 36.4857 135.939 36.2316 135.939 35.9192C135.939 35.5789 136.102 35.3201 136.429 35.143C136.755 34.9658 137.254 34.8539 137.925 34.8073L139.562 34.7024V34.4646C139.562 34.2175 139.45 34.0124 139.226 33.8492C139.002 33.686 138.669 33.6044 138.226 33.6044C137.848 33.6044 137.536 33.6627 137.289 33.7793C137.042 33.8958 136.89 34.066 136.834 34.2898H136.205C136.251 33.8982 136.457 33.6091 136.82 33.4226C137.189 33.2315 137.657 33.1359 138.226 33.1359ZM137.757 36.4997C138.321 36.4997 138.762 36.3901 139.079 36.171C139.401 35.9472 139.562 35.6605 139.562 35.3108V35.115L138.002 35.2129C137.065 35.2782 136.596 35.5043 136.596 35.8913C136.596 36.0731 136.692 36.22 136.883 36.3318C137.079 36.4437 137.37 36.4997 137.757 36.4997ZM148.335 36.8843H147.44L145.706 35.2898H144.881V36.8843H144.23V35.2898H143.405L141.671 36.8843H140.776L142.888 34.9821L140.845 33.2198H141.692L143.384 34.7723H144.23V33.2198H144.881V34.7723H145.727L147.419 33.2198H148.265L146.223 34.9821L148.335 36.8843ZM148.989 36.8843V33.2198H149.653V34.7444H152.569V33.2198H153.234V36.8843H152.569V35.2898H149.653V36.8843H148.989ZM154.748 36.4577C154.32 36.1174 154.105 35.6488 154.105 35.0521C154.105 34.4553 154.32 33.9867 154.748 33.6464C155.177 33.3061 155.751 33.1359 156.469 33.1359C157.187 33.1359 157.76 33.3061 158.189 33.6464C158.618 33.9867 158.833 34.4553 158.833 35.0521C158.833 35.6488 158.618 36.1174 158.189 36.4577C157.76 36.7981 157.187 36.9682 156.469 36.9682C155.751 36.9682 155.177 36.7981 154.748 36.4577ZM155.224 34.031C154.916 34.2875 154.762 34.6278 154.762 35.0521C154.762 35.4763 154.916 35.8167 155.224 36.0731C155.532 36.3295 155.947 36.4577 156.469 36.4577C156.991 36.4577 157.406 36.3295 157.714 36.0731C158.021 35.8167 158.175 35.4763 158.175 35.0521C158.175 34.6278 158.021 34.2875 157.714 34.031C157.406 33.7746 156.991 33.6464 156.469 33.6464C155.947 33.6464 155.532 33.7746 155.224 34.031ZM164.082 35.157V35.2409H160.131C160.177 35.6512 160.357 35.9635 160.669 36.178C160.981 36.3925 161.389 36.4997 161.893 36.4997C162.247 36.4997 162.55 36.4461 162.802 36.3388C163.058 36.2316 163.245 36.0871 163.361 35.9053L163.998 35.9332C163.867 36.2596 163.62 36.5137 163.257 36.6955C162.898 36.8773 162.443 36.9682 161.893 36.9682C161.142 36.9682 160.55 36.8074 160.117 36.4857C159.683 36.1593 159.466 35.6815 159.466 35.0521C159.466 34.4273 159.681 33.9518 160.11 33.6254C160.543 33.2991 161.114 33.1359 161.823 33.1359C162.55 33.1359 163.107 33.3037 163.494 33.6394C163.886 33.9704 164.082 34.4763 164.082 35.157ZM161.823 33.6044C161.357 33.6044 160.972 33.707 160.669 33.9121C160.371 34.1173 160.193 34.418 160.138 34.8143H163.424C163.406 34.4413 163.252 34.1476 162.963 33.9331C162.678 33.714 162.298 33.6044 161.823 33.6044ZM170.705 33.2198H171.432L169.397 37.2899C169.201 37.7095 168.999 37.9939 168.789 38.1431C168.584 38.2923 168.257 38.3669 167.81 38.3669C167.609 38.3669 167.437 38.3553 167.292 38.3319V37.8214C167.446 37.8354 167.605 37.8424 167.768 37.8424C168.038 37.8424 168.241 37.7981 168.376 37.7095C168.516 37.6256 168.649 37.4578 168.775 37.206L168.929 36.8843H168.649L166.579 33.2198H167.32L169.152 36.6186L170.705 33.2198ZM172.154 36.8843V33.2198H176.336V36.8843H175.672V33.7653H172.819V36.8843H172.154ZM179.923 33.1359C180.566 33.1359 181.083 33.3061 181.475 33.6464C181.867 33.9867 182.062 34.4553 182.062 35.0521C182.062 35.6488 181.867 36.1174 181.475 36.4577C181.083 36.7981 180.566 36.9682 179.923 36.9682C179.512 36.9682 179.151 36.896 178.839 36.7514C178.526 36.6023 178.286 36.3901 178.118 36.1151V38.283H177.454V33.2198H178.062V34.094C178.216 33.7816 178.452 33.5438 178.769 33.3807C179.09 33.2175 179.475 33.1359 179.923 33.1359ZM178.538 36.0731C178.836 36.3295 179.239 36.4577 179.748 36.4577C180.256 36.4577 180.659 36.3295 180.958 36.0731C181.256 35.8167 181.405 35.4763 181.405 35.0521C181.405 34.6278 181.256 34.2875 180.958 34.031C180.659 33.7746 180.256 33.6464 179.748 33.6464C179.239 33.6464 178.836 33.7746 178.538 34.031C178.239 34.2875 178.09 34.6278 178.09 35.0521C178.09 35.4763 178.239 35.8167 178.538 36.0731ZM184.96 33.1359C185.617 33.1359 186.114 33.2618 186.449 33.5135C186.79 33.7606 186.96 34.1219 186.96 34.5975V36.8843H186.351V36.0451C186.188 36.3342 185.932 36.5603 185.582 36.7235C185.237 36.8867 184.82 36.9682 184.33 36.9682C183.771 36.9682 183.354 36.8727 183.079 36.6815C182.808 36.4857 182.673 36.2316 182.673 35.9192C182.673 35.5789 182.836 35.3201 183.163 35.143C183.489 34.9658 183.988 34.8539 184.659 34.8073L186.296 34.7024V34.4646C186.296 34.2175 186.184 34.0124 185.96 33.8492C185.736 33.686 185.403 33.6044 184.96 33.6044C184.582 33.6044 184.27 33.6627 184.023 33.7793C183.776 33.8958 183.624 34.066 183.568 34.2898H182.939C182.985 33.8982 183.19 33.6091 183.554 33.4226C183.922 33.2315 184.391 33.1359 184.96 33.1359ZM184.491 36.4997C185.055 36.4997 185.496 36.3901 185.813 36.171C186.135 35.9472 186.296 35.6605 186.296 35.3108V35.115L184.736 35.2129C183.799 35.2782 183.33 35.5043 183.33 35.8913C183.33 36.0731 183.426 36.22 183.617 36.3318C183.813 36.4437 184.104 36.4997 184.491 36.4997ZM190.942 34.9891C191.357 35.0264 191.665 35.1173 191.865 35.2619C192.07 35.4064 192.173 35.6162 192.173 35.8913C192.173 36.1803 192.047 36.4181 191.795 36.6046C191.543 36.7911 191.119 36.8843 190.522 36.8843H188.033V33.2198H190.41C190.961 33.2198 191.364 33.3037 191.62 33.4716C191.881 33.6394 192.012 33.8609 192.012 34.1359C192.012 34.6115 191.655 34.8959 190.942 34.9891ZM188.697 33.6954V34.8003H190.326C191.012 34.8003 191.355 34.6161 191.355 34.2478C191.355 33.8795 190.996 33.6954 190.278 33.6954H188.697ZM190.403 36.4088C190.809 36.4088 191.093 36.3575 191.257 36.2549C191.424 36.1477 191.508 36.0008 191.508 35.8143C191.508 35.6185 191.42 35.4717 191.243 35.3738C191.065 35.2759 190.767 35.2269 190.347 35.2269H188.697V36.4088H190.403ZM193.648 33.2198H197.096V36.8843H196.431V33.7653H194.235C194.151 34.819 194.098 35.432 194.075 35.6045C193.986 36.1966 193.816 36.5836 193.564 36.7654C193.405 36.8773 193.198 36.9333 192.942 36.9333C192.881 36.9333 192.757 36.924 192.571 36.9053V36.3668C192.674 36.3761 192.75 36.3808 192.802 36.3808C193.123 36.3808 193.329 36.178 193.417 35.7724C193.506 35.3621 193.583 34.5112 193.648 33.2198ZM202.586 35.157V35.2409H198.635C198.682 35.6512 198.861 35.9635 199.173 36.178C199.486 36.3925 199.894 36.4997 200.397 36.4997C200.752 36.4997 201.055 36.4461 201.306 36.3388C201.563 36.2316 201.749 36.0871 201.866 35.9053L202.502 35.9332C202.372 36.2596 202.125 36.5137 201.761 36.6955C201.402 36.8773 200.947 36.9682 200.397 36.9682C199.647 36.9682 199.055 36.8074 198.621 36.4857C198.187 36.1593 197.971 35.6815 197.971 35.0521C197.971 34.4273 198.185 33.9518 198.614 33.6254C199.048 33.2991 199.619 33.1359 200.327 33.1359C201.055 33.1359 201.612 33.3037 201.999 33.6394C202.39 33.9704 202.586 34.4763 202.586 35.157ZM200.327 33.6044C199.861 33.6044 199.477 33.707 199.173 33.9121C198.875 34.1173 198.698 34.418 198.642 34.8143H201.929C201.91 34.4413 201.756 34.1476 201.467 33.9331C201.183 33.714 200.803 33.6044 200.327 33.6044ZM203.447 36.8843V33.2198H204.111V34.7444H207.027V33.2198H207.692V36.8843H207.027V35.2898H204.111V36.8843H203.447ZM212.165 33.2198H213.144V36.8843H212.5V33.6534L209.787 36.8843H208.808V33.2198H209.451V36.4507L212.165 33.2198ZM218.635 35.157V35.2409H214.684C214.731 35.6512 214.91 35.9635 215.223 36.178C215.535 36.3925 215.943 36.4997 216.447 36.4997C216.801 36.4997 217.104 36.4461 217.356 36.3388C217.612 36.2316 217.799 36.0871 217.915 35.9053L218.552 35.9332C218.421 36.2596 218.174 36.5137 217.81 36.6955C217.451 36.8773 216.997 36.9682 216.447 36.9682C215.696 36.9682 215.104 36.8074 214.67 36.4857C214.237 36.1593 214.02 35.6815 214.02 35.0521C214.02 34.4273 214.234 33.9518 214.663 33.6254C215.097 33.2991 215.668 33.1359 216.377 33.1359C217.104 33.1359 217.661 33.3037 218.048 33.6394C218.44 33.9704 218.635 34.4763 218.635 35.157ZM216.377 33.6044C215.91 33.6044 215.526 33.707 215.223 33.9121C214.924 34.1173 214.747 34.418 214.691 34.8143H217.978C217.959 34.4413 217.806 34.1476 217.517 33.9331C217.232 33.714 216.852 33.6044 216.377 33.6044ZM58.7084 41.7653V41.2198H62.9044V41.7653H61.135V44.8843H60.4707V41.7653H58.7084ZM67.7456 43.157V43.2409H63.7943C63.8409 43.6512 64.0204 43.9635 64.3328 44.178C64.6452 44.3925 65.0531 44.4997 65.5567 44.4997C65.911 44.4997 66.214 44.4461 66.4658 44.3388C66.7222 44.2316 66.9087 44.0871 67.0253 43.9053L67.6617 43.9332C67.5311 44.2596 67.284 44.5137 66.9204 44.6955C66.5614 44.8773 66.1068 44.9682 65.5567 44.9682C64.806 44.9682 64.2139 44.8074 63.7803 44.4857C63.3468 44.1593 63.13 43.6815 63.13 43.0521C63.13 42.4273 63.3444 41.9518 63.7733 41.6254C64.2069 41.2991 64.7781 41.1359 65.4867 41.1359C66.214 41.1359 66.7712 41.3037 67.1581 41.6394C67.5498 41.9704 67.7456 42.4763 67.7456 43.157ZM65.4867 41.6044C65.0205 41.6044 64.6359 41.707 64.3328 41.9121C64.0344 42.1173 63.8573 42.418 63.8013 42.8143H67.0882C67.0695 42.4413 66.9157 42.1476 66.6266 41.9331C66.3422 41.714 65.9623 41.6044 65.4867 41.6044ZM68.6061 44.8843V41.2198H72.7881V44.8843H72.1237V41.7653H69.2705V44.8843H68.6061ZM74.5491 41.2198H77.9969V44.8843H77.3325V41.7653H75.1366C75.0526 42.819 74.999 43.432 74.9757 43.6045C74.8871 44.1966 74.717 44.5836 74.4652 44.7654C74.3067 44.8773 74.0992 44.9333 73.8428 44.9333C73.7822 44.9333 73.6586 44.924 73.4721 44.9053V44.3668C73.5747 44.3761 73.6516 44.3808 73.7029 44.3808C74.0246 44.3808 74.2298 44.178 74.3183 43.7724C74.4069 43.3621 74.4839 42.5112 74.5491 41.2198ZM79.5152 44.4577C79.0863 44.1174 78.8718 43.6488 78.8718 43.0521C78.8718 42.4553 79.0863 41.9867 79.5152 41.6464C79.9442 41.3061 80.5176 41.1359 81.2356 41.1359C81.9536 41.1359 82.527 41.3061 82.956 41.6464C83.3849 41.9867 83.5993 42.4553 83.5993 43.0521C83.5993 43.6488 83.3849 44.1174 82.956 44.4577C82.527 44.7981 81.9536 44.9682 81.2356 44.9682C80.5176 44.9682 79.9442 44.7981 79.5152 44.4577ZM79.9908 42.031C79.6831 42.2875 79.5292 42.6278 79.5292 43.0521C79.5292 43.4763 79.6831 43.8167 79.9908 44.0731C80.2985 44.3295 80.7134 44.4577 81.2356 44.4577C81.7578 44.4577 82.1727 44.3295 82.4804 44.0731C82.7881 43.8167 82.942 43.4763 82.942 43.0521C82.942 42.6278 82.7881 42.2875 82.4804 42.031C82.1727 41.7746 81.7578 41.6464 81.2356 41.6464C80.7134 41.6464 80.2985 41.7746 79.9908 42.031ZM86.3519 41.1359C87.0606 41.1359 87.6224 41.3037 88.0373 41.6394C88.4523 41.9704 88.6598 42.4413 88.6598 43.0521C88.6598 43.6628 88.45 44.136 88.0304 44.4717C87.6154 44.8027 87.0466 44.9682 86.324 44.9682C85.7645 44.9682 85.2913 44.8563 84.9043 44.6326C84.5174 44.4088 84.2749 44.0917 84.177 43.6815L84.8344 43.6535C84.9276 43.9099 85.1071 44.1081 85.3729 44.2479C85.6433 44.3878 85.9603 44.4577 86.324 44.4577C86.7949 44.4577 87.1772 44.3505 87.4709 44.136C87.7693 43.9169 87.9394 43.6162 87.9814 43.2339H85.8135V42.8003H87.9744C87.9138 42.4413 87.739 42.1592 87.4499 41.9541C87.1608 41.749 86.7949 41.6464 86.3519 41.6464C85.993 41.6464 85.6806 41.7117 85.4148 41.8422C85.1491 41.9728 84.9696 42.1616 84.8763 42.4087L84.226 42.3807C84.3192 41.9844 84.5593 41.679 84.9463 41.4646C85.3379 41.2454 85.8065 41.1359 86.3519 41.1359ZM89.5315 44.8843V41.2198H90.1959V42.7444H93.1121V41.2198H93.7765V44.8843H93.1121V43.2898H90.1959V44.8843H89.5315ZM99.2635 43.157V43.2409H95.3122C95.3589 43.6512 95.5384 43.9635 95.8507 44.178C96.1631 44.3925 96.571 44.4997 97.0746 44.4997C97.4289 44.4997 97.7319 44.4461 97.9837 44.3388C98.2401 44.2316 98.4266 44.0871 98.5432 43.9053L99.1796 43.9332C99.049 44.2596 98.8019 44.5137 98.4383 44.6955C98.0793 44.8773 97.6247 44.9682 97.0746 44.9682C96.3239 44.9682 95.7318 44.8074 95.2983 44.4857C94.8647 44.1593 94.6479 43.6815 94.6479 43.0521C94.6479 42.4273 94.8623 41.9518 95.2913 41.6254C95.7248 41.2991 96.296 41.1359 97.0046 41.1359C97.7319 41.1359 98.2891 41.3037 98.676 41.6394C99.0677 41.9704 99.2635 42.4763 99.2635 43.157ZM97.0046 41.6044C96.5384 41.6044 96.1538 41.707 95.8507 41.9121C95.5523 42.1173 95.3752 42.418 95.3192 42.8143H98.6061C98.5875 42.4413 98.4336 42.1476 98.1445 41.9331C97.8602 41.714 97.4802 41.6044 97.0046 41.6044ZM102.593 41.1359C103.236 41.1359 103.754 41.3061 104.145 41.6464C104.537 41.9867 104.733 42.4553 104.733 43.0521C104.733 43.6488 104.537 44.1174 104.145 44.4577C103.754 44.7981 103.236 44.9682 102.593 44.9682C102.182 44.9682 101.821 44.896 101.509 44.7514C101.196 44.6023 100.956 44.3901 100.788 44.1151V46.283H100.124V41.2198H100.732V42.094C100.886 41.7816 101.122 41.5438 101.439 41.3807C101.76 41.2175 102.145 41.1359 102.593 41.1359ZM101.208 44.0731C101.506 44.3295 101.91 44.4577 102.418 44.4577C102.926 44.4577 103.329 44.3295 103.628 44.0731C103.926 43.8167 104.075 43.4763 104.075 43.0521C104.075 42.6278 103.926 42.2875 103.628 42.031C103.329 41.7746 102.926 41.6464 102.418 41.6464C101.91 41.6464 101.506 41.7746 101.208 42.031C100.91 42.2875 100.76 42.6278 100.76 43.0521C100.76 43.4763 100.91 43.8167 101.208 44.0731ZM105.615 44.8843V41.2198H108.867V41.7653H106.279V44.8843H105.615ZM113.701 43.157V43.2409H109.75C109.796 43.6512 109.976 43.9635 110.288 44.178C110.601 44.3925 111.009 44.4997 111.512 44.4997C111.866 44.4997 112.169 44.4461 112.421 44.3388C112.678 44.2316 112.864 44.0871 112.981 43.9053L113.617 43.9332C113.486 44.2596 113.239 44.5137 112.876 44.6955C112.517 44.8773 112.062 44.9682 111.512 44.9682C110.761 44.9682 110.169 44.8074 109.736 44.4857C109.302 44.1593 109.085 43.6815 109.085 43.0521C109.085 42.4273 109.3 41.9518 109.729 41.6254C110.162 41.2991 110.733 41.1359 111.442 41.1359C112.169 41.1359 112.727 41.3037 113.114 41.6394C113.505 41.9704 113.701 42.4763 113.701 43.157ZM111.442 41.6044C110.976 41.6044 110.591 41.707 110.288 41.9121C109.99 42.1173 109.813 42.418 109.757 42.8143H113.044C113.025 42.4413 112.871 42.1476 112.582 41.9331C112.298 41.714 111.918 41.6044 111.442 41.6044ZM113.877 41.7653V41.2198H118.073V41.7653H116.303V44.8843H115.639V41.7653H113.877ZM122.18 41.2198H123.159V44.8843H122.516V41.6534L119.802 44.8843H118.823V41.2198H119.466V44.4507L122.18 41.2198ZM127.567 41.2198H128.231V44.8843H127.567V43.3668C126.933 43.4693 126.375 43.5206 125.895 43.5206C125.322 43.5206 124.884 43.425 124.58 43.2339C124.277 43.0381 124.126 42.7187 124.126 42.2758V41.2198H124.79V42.1919C124.79 42.4716 124.895 42.6744 125.105 42.8003C125.315 42.9215 125.643 42.9821 126.091 42.9821C126.459 42.9821 126.951 42.9332 127.567 42.8353V41.2198ZM133.718 43.157V43.2409H129.767C129.813 43.6512 129.993 43.9635 130.305 44.178C130.618 44.3925 131.026 44.4997 131.529 44.4997C131.883 44.4997 132.187 44.4461 132.438 44.3388C132.695 44.2316 132.881 44.0871 132.998 43.9053L133.634 43.9332C133.504 44.2596 133.256 44.5137 132.893 44.6955C132.534 44.8773 132.079 44.9682 131.529 44.9682C130.779 44.9682 130.186 44.8074 129.753 44.4857C129.319 44.1593 129.102 43.6815 129.102 43.0521C129.102 42.4273 129.317 41.9518 129.746 41.6254C130.179 41.2991 130.751 41.1359 131.459 41.1359C132.187 41.1359 132.744 41.3037 133.131 41.6394C133.522 41.9704 133.718 42.4763 133.718 43.157ZM131.459 41.6044C130.993 41.6044 130.608 41.707 130.305 41.9121C130.007 42.1173 129.83 42.418 129.774 42.8143H133.061C133.042 42.4413 132.888 42.1476 132.599 41.9331C132.315 41.714 131.935 41.6044 131.459 41.6044ZM138.831 43.6325C138.737 44.0568 138.495 44.3855 138.103 44.6186C137.716 44.8517 137.236 44.9682 136.663 44.9682C135.945 44.9682 135.376 44.8027 134.956 44.4717C134.541 44.136 134.334 43.6628 134.334 43.0521C134.334 42.4413 134.541 41.9704 134.956 41.6394C135.371 41.3037 135.933 41.1359 136.642 41.1359C137.196 41.1359 137.67 41.2478 138.061 41.4716C138.458 41.6954 138.695 42.0147 138.775 42.4297L138.145 42.4646C138.066 42.1989 137.889 41.9961 137.614 41.8562C137.339 41.7163 137.015 41.6464 136.642 41.6464C136.147 41.6464 135.749 41.7723 135.446 42.024C135.147 42.2758 134.998 42.6185 134.998 43.0521C134.998 43.4857 135.15 43.8283 135.453 44.0801C135.756 44.3318 136.159 44.4577 136.663 44.4577C137.045 44.4577 137.371 44.3831 137.642 44.2339C137.917 44.0847 138.096 43.8726 138.18 43.5975L138.831 43.6325ZM144.08 44.8843H143.164L141.192 43.2898H140.304V44.8843H139.639V41.2198H140.304V42.7723H141.206L143.108 41.2198H143.961L141.716 42.9751L144.08 44.8843ZM144.825 44.4577C144.396 44.1174 144.182 43.6488 144.182 43.0521C144.182 42.4553 144.396 41.9867 144.825 41.6464C145.254 41.3061 145.828 41.1359 146.546 41.1359C147.264 41.1359 147.837 41.3061 148.266 41.6464C148.695 41.9867 148.909 42.4553 148.909 43.0521C148.909 43.6488 148.695 44.1174 148.266 44.4577C147.837 44.7981 147.264 44.9682 146.546 44.9682C145.828 44.9682 145.254 44.7981 144.825 44.4577ZM145.301 42.031C144.993 42.2875 144.839 42.6278 144.839 43.0521C144.839 43.4763 144.993 43.8167 145.301 44.0731C145.609 44.3295 146.023 44.4577 146.546 44.4577C147.068 44.4577 147.483 44.3295 147.79 44.0731C148.098 43.8167 148.252 43.4763 148.252 43.0521C148.252 42.6278 148.098 42.2875 147.79 42.031C147.483 41.7746 147.068 41.6464 146.546 41.6464C146.023 41.6464 145.609 41.7746 145.301 42.031ZM149.788 44.8843V41.2198H153.04V41.7653H150.452V44.8843H149.788ZM153.902 44.4577C153.473 44.1174 153.258 43.6488 153.258 43.0521C153.258 42.4553 153.473 41.9867 153.902 41.6464C154.331 41.3061 154.904 41.1359 155.622 41.1359C156.34 41.1359 156.913 41.3061 157.342 41.6464C157.771 41.9867 157.986 42.4553 157.986 43.0521C157.986 43.6488 157.771 44.1174 157.342 44.4577C156.913 44.7981 156.34 44.9682 155.622 44.9682C154.904 44.9682 154.331 44.7981 153.902 44.4577ZM154.377 42.031C154.069 42.2875 153.916 42.6278 153.916 43.0521C153.916 43.4763 154.069 43.8167 154.377 44.0731C154.685 44.3295 155.1 44.4577 155.622 44.4577C156.144 44.4577 156.559 44.3295 156.867 44.0731C157.174 43.8167 157.328 43.4763 157.328 43.0521C157.328 42.6278 157.174 42.2875 156.867 42.031C156.559 41.7746 156.144 41.6464 155.622 41.6464C155.1 41.6464 154.685 41.7746 154.377 42.031ZM161.264 44.4577C160.835 44.1174 160.62 43.6488 160.62 43.0521C160.62 42.4553 160.835 41.9867 161.264 41.6464C161.693 41.3061 162.266 41.1359 162.984 41.1359C163.702 41.1359 164.276 41.3061 164.704 41.6464C165.133 41.9867 165.348 42.4553 165.348 43.0521C165.348 43.6488 165.133 44.1174 164.704 44.4577C164.276 44.7981 163.702 44.9682 162.984 44.9682C162.266 44.9682 161.693 44.7981 161.264 44.4577ZM161.739 42.031C161.432 42.2875 161.278 42.6278 161.278 43.0521C161.278 43.4763 161.432 43.8167 161.739 44.0731C162.047 44.3295 162.462 44.4577 162.984 44.4577C163.506 44.4577 163.921 44.3295 164.229 44.0731C164.537 43.8167 164.69 43.4763 164.69 43.0521C164.69 42.6278 164.537 42.2875 164.229 42.031C163.921 41.7746 163.506 41.6464 162.984 41.6464C162.462 41.6464 162.047 41.7746 161.739 42.031ZM168.506 41.3317C169.182 41.3317 169.728 41.4972 170.143 41.8282C170.557 42.1546 170.765 42.5952 170.765 43.15C170.765 43.7141 170.553 44.1593 170.129 44.4857C169.704 44.8074 169.128 44.9682 168.401 44.9682C166.825 44.9682 166.037 44.1757 166.037 42.5905C166.037 41.7746 166.194 41.1592 166.506 40.7443C166.823 40.3293 167.357 40.0659 168.107 39.954C168.238 39.9354 168.634 39.8934 169.296 39.8281C169.674 39.7908 169.993 39.7325 170.254 39.6533V40.1708C170.045 40.264 169.765 40.327 169.415 40.3596C169.303 40.3736 169.14 40.3876 168.926 40.4016C168.716 40.4156 168.555 40.4272 168.443 40.4365C168.145 40.4645 167.9 40.5065 167.709 40.5624C167.518 40.6184 167.331 40.714 167.149 40.8492C166.968 40.9844 166.825 41.1825 166.723 41.4436C166.625 41.7047 166.56 42.0334 166.527 42.4297C166.662 42.0846 166.9 41.8166 167.24 41.6254C167.585 41.4296 168.007 41.3317 168.506 41.3317ZM168.401 44.4577C168.928 44.4577 169.343 44.3412 169.646 44.1081C169.949 43.8703 170.101 43.5509 170.101 43.15C170.101 42.749 169.949 42.432 169.646 42.1989C169.343 41.9611 168.928 41.8422 168.401 41.8422C167.87 41.8422 167.452 41.9588 167.149 42.1919C166.846 42.425 166.695 42.7444 166.695 43.15C166.695 43.5556 166.846 43.8749 167.149 44.1081C167.452 44.3412 167.87 44.4577 168.401 44.4577ZM172.041 44.4577C171.612 44.1174 171.397 43.6488 171.397 43.0521C171.397 42.4553 171.612 41.9867 172.041 41.6464C172.47 41.3061 173.043 41.1359 173.761 41.1359C174.479 41.1359 175.052 41.3061 175.481 41.6464C175.91 41.9867 176.125 42.4553 176.125 43.0521C176.125 43.6488 175.91 44.1174 175.481 44.4577C175.052 44.7981 174.479 44.9682 173.761 44.9682C173.043 44.9682 172.47 44.7981 172.041 44.4577ZM172.516 42.031C172.208 42.2875 172.055 42.6278 172.055 43.0521C172.055 43.4763 172.208 43.8167 172.516 44.0731C172.824 44.3295 173.239 44.4577 173.761 44.4577C174.283 44.4577 174.698 44.3295 175.006 44.0731C175.314 43.8167 175.467 43.4763 175.467 43.0521C175.467 42.6278 175.314 42.2875 175.006 42.031C174.698 41.7746 174.283 41.6464 173.761 41.6464C173.239 41.6464 172.824 41.7746 172.516 42.031ZM179.472 41.1359C180.115 41.1359 180.633 41.3061 181.024 41.6464C181.416 41.9867 181.612 42.4553 181.612 43.0521C181.612 43.6488 181.416 44.1174 181.024 44.4577C180.633 44.7981 180.115 44.9682 179.472 44.9682C179.061 44.9682 178.7 44.896 178.388 44.7514C178.075 44.6023 177.835 44.3901 177.667 44.1151V46.283H177.003V41.2198H177.612V42.094C177.765 41.7816 178.001 41.5438 178.318 41.3807C178.64 41.2175 179.024 41.1359 179.472 41.1359ZM178.087 44.0731C178.385 44.3295 178.789 44.4577 179.297 44.4577C179.805 44.4577 180.208 44.3295 180.507 44.0731C180.805 43.8167 180.954 43.4763 180.954 43.0521C180.954 42.6278 180.805 42.2875 180.507 42.031C180.208 41.7746 179.805 41.6464 179.297 41.6464C178.789 41.6464 178.385 41.7746 178.087 42.031C177.789 42.2875 177.64 42.6278 177.64 43.0521C177.64 43.4763 177.789 43.8167 178.087 44.0731ZM186.017 41.2198H186.744L184.709 45.2899C184.513 45.7095 184.31 45.9939 184.1 46.1431C183.895 46.2923 183.569 46.3669 183.121 46.3669C182.921 46.3669 182.748 46.3553 182.604 46.3319V45.8214C182.758 45.8354 182.916 45.8424 183.079 45.8424C183.35 45.8424 183.553 45.7981 183.688 45.7095C183.828 45.6256 183.961 45.4578 184.086 45.206L184.24 44.8843H183.961L181.89 41.2198H182.632L184.464 44.6186L186.017 41.2198ZM191.068 44.3388H191.656V45.8704H191.027V44.8843H187.299V45.8704H186.677V44.3388H187.054C187.162 44.1757 187.25 43.9262 187.32 43.5906C187.395 43.2502 187.444 42.9472 187.467 42.6814C187.495 42.411 187.537 41.9238 187.593 41.2198H191.068V44.3388ZM190.404 44.3388V41.7653H188.152C188.087 42.4926 188.022 43.0451 187.956 43.4227C187.896 43.7957 187.81 44.1011 187.698 44.3388H190.404ZM192.713 44.4577C192.284 44.1174 192.07 43.6488 192.07 43.0521C192.07 42.4553 192.284 41.9867 192.713 41.6464C193.142 41.3061 193.716 41.1359 194.434 41.1359C195.152 41.1359 195.725 41.3061 196.154 41.6464C196.583 41.9867 196.797 42.4553 196.797 43.0521C196.797 43.6488 196.583 44.1174 196.154 44.4577C195.725 44.7981 195.152 44.9682 194.434 44.9682C193.716 44.9682 193.142 44.7981 192.713 44.4577ZM193.189 42.031C192.881 42.2875 192.727 42.6278 192.727 43.0521C192.727 43.4763 192.881 43.8167 193.189 44.0731C193.497 44.3295 193.912 44.4577 194.434 44.4577C194.956 44.4577 195.371 44.3295 195.679 44.0731C195.986 43.8167 196.14 43.4763 196.14 43.0521C196.14 42.6278 195.986 42.2875 195.679 42.031C195.371 41.7746 194.956 41.6464 194.434 41.6464C193.912 41.6464 193.497 41.7746 193.189 42.031ZM200.585 42.9891C201 43.0264 201.308 43.1173 201.508 43.2619C201.713 43.4064 201.816 43.6162 201.816 43.8913C201.816 44.1803 201.69 44.4181 201.438 44.6046C201.187 44.7911 200.762 44.8843 200.165 44.8843H197.676V41.2198H200.054C200.604 41.2198 201.007 41.3037 201.263 41.4716C201.525 41.6394 201.655 41.8609 201.655 42.1359C201.655 42.6115 201.298 42.8959 200.585 42.9891ZM198.34 41.6954V42.8003H199.97C200.655 42.8003 200.998 42.6161 200.998 42.2478C200.998 41.8795 200.639 41.6954 199.921 41.6954H198.34ZM200.047 44.4088C200.452 44.4088 200.737 44.3575 200.9 44.2549C201.068 44.1477 201.152 44.0008 201.152 43.8143C201.152 43.6185 201.063 43.4717 200.886 43.3738C200.709 43.2759 200.41 43.2269 199.991 43.2269H198.34V44.4088H200.047ZM204.704 41.1359C205.361 41.1359 205.858 41.2618 206.193 41.5135C206.534 41.7606 206.704 42.1219 206.704 42.5975V44.8843H206.095V44.0451C205.932 44.3342 205.676 44.5603 205.326 44.7235C204.981 44.8867 204.564 44.9682 204.074 44.9682C203.515 44.9682 203.098 44.8727 202.823 44.6815C202.552 44.4857 202.417 44.2316 202.417 43.9192C202.417 43.5789 202.58 43.3201 202.906 43.143C203.233 42.9658 203.732 42.8539 204.403 42.8073L206.039 42.7024V42.4646C206.039 42.2175 205.928 42.0124 205.704 41.8492C205.48 41.686 205.147 41.6044 204.704 41.6044C204.326 41.6044 204.014 41.6627 203.767 41.7793C203.52 41.8958 203.368 42.066 203.312 42.2898H202.683C202.729 41.8982 202.934 41.6091 203.298 41.4226C203.666 41.2315 204.135 41.1359 204.704 41.1359ZM204.235 44.4997C204.799 44.4997 205.24 44.3901 205.557 44.171C205.879 43.9472 206.039 43.6605 206.039 43.3108V43.115L204.48 43.2129C203.543 43.2782 203.074 43.5043 203.074 43.8913C203.074 44.0731 203.17 44.22 203.361 44.3318C203.557 44.4437 203.848 44.4997 204.235 44.4997ZM207.777 44.8843V41.2198H208.441V42.7444H211.357V41.2198H212.022V44.8843H211.357V43.2898H208.441V44.8843H207.777ZM216.495 41.2198H217.474V44.8843H216.83V41.6534L214.117 44.8843H213.138V41.2198H213.781V44.4507L216.495 41.2198ZM222.532 41.2198V44.8843H221.867V43.4717H220.42L219.119 44.8843H218.287L219.72 43.4437C218.877 43.3504 218.455 42.9845 218.455 42.3457C218.455 41.5951 219.033 41.2198 220.189 41.2198H222.532ZM220.245 43.0241H221.867V41.7093H220.245C219.494 41.7093 219.119 41.9285 219.119 42.3667C219.119 42.805 219.494 43.0241 220.245 43.0241Z" fill="#161617"/>
</svg>
