<svg width="0" height="0" class="hidden">
  <symbol xmlns="http://www.w3.org/2000/svg" viewBox="0 0 20 20" id="phone">
    <path d="M19.9994 14.92V17.92C20.0006 18.1985 19.9435 18.4742 19.832 18.7294C19.7204 18.9845 19.5567 19.2136 19.3515 19.4019C19.1463 19.5901 18.904 19.7335 18.6402 19.8227C18.3764 19.9119 18.0968 19.9451 17.8194 19.92C14.7423 19.5856 11.7864 18.5342 9.18944 16.85C6.77327 15.3147 4.72478 13.2662 3.18945 10.85C1.49942 8.24121 0.447688 5.271 0.119445 2.18001C0.0944553 1.90347 0.12732 1.62477 0.215945 1.36163C0.304571 1.09849 0.447016 0.856695 0.634211 0.651627C0.821406 0.446558 1.04925 0.282715 1.30324 0.170527C1.55722 0.05834 1.83179 0.000266879 2.10945 5.39961e-06H5.10945C5.59475 -0.00477105 6.06524 0.167084 6.43321 0.483538C6.80118 0.799992 7.04152 1.23945 7.10944 1.72001C7.23607 2.68007 7.47089 3.62273 7.80945 4.53001C7.94399 4.88793 7.97311 5.27692 7.89335 5.65089C7.8136 6.02485 7.62831 6.36812 7.35944 6.64001L6.08945 7.91001C7.513 10.4136 9.5859 12.4865 12.0894 13.91L13.3594 12.64C13.6313 12.3711 13.9746 12.1859 14.3486 12.1061C14.7225 12.0263 15.1115 12.0555 15.4694 12.19C16.3767 12.5286 17.3194 12.7634 18.2794 12.89C18.7652 12.9585 19.2088 13.2032 19.526 13.5775C19.8431 13.9518 20.0116 14.4296 19.9994 14.92Z"></path>
  </symbol>
  <symbol xmlns="http://www.w3.org/2000/svg" viewBox="0 0 16 13" id="check" fill="none">
    <path d="M1 6.2381L5.51613 11L15 1" stroke="#F1681A" stroke-width="2" />
  </symbol>
  <symbol xmlns="http://www.w3.org/2000/svg" viewBox="0 0 40 72" id="arrow-left">
    <path d="M40 72L10 36L40 0L30 -4.37114e-07L-2.24109e-06 36L30 72L40 72Z"  />
  </symbol>
  <symbol xmlns="http://www.w3.org/2000/svg" viewBox="0 0 40 72" id="arrow-right">
    <path d="M0 72L30 36L-3.14722e-06 0L10 -4.37114e-07L40 36L10 72L0 72Z"  />
  </symbol>
</svg>
